<svg width="233" height="130" viewBox="0 0 233 130" fill="none" xmlns="http://www.w3.org/2000/svg">
<rect width="171.542" height="227.844" rx="2" transform="matrix(1 0 -0.0826343 0.99658 60.8276 60)" fill="#FCFCFC"/>
<mask id="mask0_1163_4431" style="mask-type:alpha" maskUnits="userSpaceOnUse" x="42" y="60" width="191" height="228">
<rect width="171.542" height="227.844" rx="2" transform="matrix(1 0 -0.0826343 0.99658 60.8276 60)" fill="white"/>
</mask>
<g mask="url(#mask0_1163_4431)">
<g filter="url(#filter0_f_1163_4431)">
<rect width="157.875" height="215.802" rx="2" transform="matrix(1 0 -0.0826343 0.99658 54.8328 60)" fill="#EBEBEB"/>
</g>
</g>
<path d="M28.6624 1.99316C28.7537 0.892372 29.7231 0 30.8277 0L212.37 0C213.475 0 214.296 0.892368 214.205 1.99316L198.947 186.007C198.856 187.108 197.886 188 196.782 188H15.2391C14.1346 188 13.3131 187.108 13.4044 186.007L28.6624 1.99316Z" fill="#FCFCFC"/>
<path fill-rule="evenodd" clip-rule="evenodd" d="M22.3539 38.1263C23.1607 36.0719 24.7692 34.4305 27.7451 33.4084C34.5934 31.0562 40.1108 31.1258 44.3901 32.6746C48.656 34.2186 52.0052 37.3448 54.3365 41.7023C59.058 50.5274 59.4492 64.2227 54.3677 78.044C52.7477 82.4502 50.5833 86.8316 47.8568 91.0266C44.2041 86.4103 40.8049 81.8528 37.7428 77.4307C29.6578 65.7544 24.119 55.2962 22.3039 47.3287C21.399 43.3563 21.4939 40.3164 22.3539 38.1263ZM44.4197 95.8271C40.3081 90.6832 36.4896 85.5953 33.0744 80.6632C24.895 68.8506 18.8331 57.6571 16.7675 48.5899C15.7321 44.045 15.6269 39.7219 17.0686 36.0508C18.5635 32.244 21.5686 29.526 25.9005 28.0381C33.6677 25.3702 40.5511 25.2463 46.3227 27.3353C52.1077 29.4291 56.4592 33.6329 59.3433 39.0237C65.0527 49.6953 65.1507 65.1703 59.6971 80.0035C57.736 85.3376 55.0418 90.6365 51.5896 95.6583C66.5491 113.893 84.9808 132.64 101.823 147.271C113.112 157.078 123.571 164.934 131.703 169.543C135.795 171.862 139.107 173.248 141.535 173.732C144.059 174.236 144.688 173.628 144.851 173.408C145.225 172.904 145.726 171.289 144.842 167.342C144 163.585 142.06 158.41 138.725 151.582C132.069 137.951 120.106 118.234 101.238 90.9963C93.8013 80.2613 89.9718 72.3663 89.4514 66.7082C89.179 63.7468 89.7876 61.0939 91.5761 59.0676C93.3096 57.1037 95.7809 56.1554 98.3485 55.7461C103.395 54.9418 110.243 56.0051 117.467 57.6954C124.099 59.2474 131.44 61.4305 138.611 63.5633C139.362 63.7868 140.112 64.0098 140.859 64.2314C148.793 66.5861 156.39 68.7856 162.728 70.0181C165.895 70.6339 168.65 70.988 170.912 71.0187C173.229 71.05 174.731 70.7349 175.606 70.2762C176.289 69.9178 176.628 69.4759 176.731 68.6132C176.861 67.5254 176.595 65.6873 175.356 62.8059C173.043 57.4298 167.847 49.5402 158.684 38.3365L148.57 47.2226L142.145 15.0747L173.198 25.5845L162.952 34.5864C172.272 45.9667 177.926 54.4103 180.572 60.5625C181.97 63.8123 182.673 66.7457 182.369 69.2873C182.039 72.0541 180.54 74.0996 178.244 75.3045C176.138 76.409 173.52 76.7328 170.836 76.6964C168.098 76.6594 164.973 76.2393 161.644 75.592C154.991 74.2983 147.131 72.0159 139.243 69.6751C138.499 69.4543 137.755 69.233 137.011 69.0118C129.805 66.8688 122.631 64.7355 116.173 63.2244C108.945 61.533 103.077 60.7425 99.2423 61.3536C97.3695 61.6521 96.3595 62.229 95.8332 62.8252C95.362 63.3591 94.9323 64.3014 95.1058 66.1881C95.4772 70.226 98.4761 77.0381 105.905 87.7628C124.828 115.08 136.983 135.074 143.828 149.09C147.244 156.085 149.4 161.717 150.382 166.1C151.322 170.291 151.375 174.147 149.41 176.793C147.236 179.722 143.636 179.942 140.423 179.301C137.114 178.64 133.181 176.907 128.903 174.483C120.292 169.603 109.504 161.466 98.0986 151.558C81.3985 137.05 63.1247 118.525 48.0844 100.334C42.2523 107.482 34.737 113.853 25.457 118.658C7.91257 127.743 -15.6933 131.107 -45.7148 123.894L-44.3883 118.373C-15.4451 125.327 6.72343 121.964 22.846 113.616C31.793 108.983 38.954 102.776 44.4197 95.8271Z" fill="#F97410"/>
<defs>
<filter id="filter0_f_1163_4431" x="21.1584" y="44" width="207.391" height="247.064" filterUnits="userSpaceOnUse" color-interpolation-filters="sRGB">
<feFlood flood-opacity="0" result="BackgroundImageFix"/>
<feBlend mode="normal" in="SourceGraphic" in2="BackgroundImageFix" result="shape"/>
<feGaussianBlur stdDeviation="8" result="effect1_foregroundBlur_1163_4431"/>
</filter>
</defs>
</svg>
