<svg xmlns="http://www.w3.org/2000/svg" width="79" height="94" viewBox="0 0 79 94" fill="none">
  <rect width="115.061" height="90.4638" rx="1.34149" transform="matrix(1 0 -0.0909993 0.995851 -36.7681 3)" fill="#FCFCFC"/>
  <mask id="mask0_1269_1306" style="mask-type:alpha" maskUnits="userSpaceOnUse" x="-45" y="3" width="124" height="91">
    <rect width="115.061" height="90.4638" rx="1.34149" transform="matrix(1 0 -0.0909993 0.995851 -36.7681 3.00146)" fill="white"/>
  </mask>
  <g mask="url(#mask0_1269_1306)">
    <g filter="url(#filter0_f_1269_1306)">
      <rect width="105.894" height="85.683" rx="1.34149" transform="matrix(1 0 -0.0909993 0.995851 -40.7896 3.00146)" fill="#EAEAEA"/>
    </g>
  </g>
  <path d="M-20.6427 0.974152C-20.5935 0.436142 -20.1157 0 -19.5755 0L69.2181 0C69.7583 0 70.1564 0.436143 70.1073 0.974153L62.6609 82.4641C62.6117 83.0021 62.1339 83.4383 61.5936 83.4383H-27.1999C-27.7402 83.4383 -28.1383 83.0021 -28.0891 82.4641L-20.6427 0.974152Z" fill="#FCFCFC"/>
  <path fill-rule="evenodd" clip-rule="evenodd" d="M-23.7201 16.9239C-23.3255 16.0121 -22.5388 15.2836 -21.0833 14.83C-17.7337 13.786 -15.0351 13.8169 -12.9421 14.5043C-10.8557 15.1896 -9.21751 16.5771 -8.07725 18.511C-5.76796 22.4278 -5.57661 28.506 -8.06204 34.6402C-8.85438 36.5957 -9.913 38.5403 -11.2465 40.4022C-13.0331 38.3533 -14.6957 36.3306 -16.1934 34.368C-20.1478 29.1858 -22.8568 24.5442 -23.7446 21.0081C-24.1872 19.2451 -24.1408 17.8959 -23.7201 16.9239ZM-12.9277 42.5327C-14.9387 40.2497 -16.8063 37.9916 -18.4767 35.8026C-22.4773 30.56 -25.4422 25.5921 -26.4525 21.5679C-26.9589 19.5508 -27.0104 17.632 -26.3052 16.0027C-25.5741 14.3132 -24.1042 13.1069 -21.9855 12.4465C-18.1865 11.2625 -14.8198 11.2075 -11.9969 12.1346C-9.1674 13.0639 -7.03905 14.9296 -5.62841 17.3222C-2.83593 22.0584 -2.78796 28.9266 -5.45535 35.5098C-6.41457 37.8772 -7.73229 40.229 -9.42078 42.4578C-2.10401 50.5508 6.91103 58.8711 15.1484 65.3645C20.6701 69.7172 25.7857 73.2037 29.7629 75.2491C31.7646 76.2786 33.3847 76.8936 34.5719 77.1086C35.8065 77.3322 36.114 77.0623 36.194 76.9645C36.3769 76.741 36.622 76.0243 36.1893 74.2723C35.7776 72.6053 34.8287 70.3083 33.1978 67.2778C29.9422 61.2283 24.0908 52.4774 14.8623 40.3887C11.2252 35.6243 9.35218 32.1203 9.09763 29.6091C8.9644 28.2948 9.26206 27.1174 10.1368 26.2181C10.9847 25.3465 12.1934 24.9256 13.4492 24.7439C15.9174 24.3869 19.2671 24.8589 22.8002 25.6091C26.0442 26.2979 29.6344 27.2668 33.1418 28.2134C33.5093 28.3126 33.876 28.4115 34.2413 28.5099C38.122 29.555 41.8377 30.5311 44.9378 31.0781C46.4866 31.3514 47.8341 31.5086 48.9407 31.5222C50.0736 31.5361 50.8085 31.3962 51.2361 31.1927C51.5702 31.0336 51.7363 30.8375 51.7867 30.4546C51.8504 29.9718 51.72 29.156 51.1139 27.8772C49.983 25.4912 47.4415 21.9896 42.9596 17.0172L38.0128 20.961L34.8703 6.69312L50.0587 11.3576L45.0474 15.3528C49.6059 20.4036 52.371 24.1511 53.6652 26.8815C54.3488 28.3239 54.693 29.6258 54.5444 30.7538C54.3826 31.9817 53.6497 32.8896 52.5264 33.4243C51.4967 33.9145 50.2159 34.0582 48.9031 34.0421C47.564 34.0257 46.0359 33.8392 44.4077 33.5519C41.1536 32.9778 37.3091 31.9648 33.4511 30.9259C33.0873 30.8279 32.7233 30.7297 32.3595 30.6315C28.8348 29.6804 25.326 28.7336 22.1674 28.0629C18.632 27.3123 15.7618 26.9614 13.8864 27.2327C12.9704 27.3651 12.4764 27.6212 12.219 27.8858C11.9885 28.1228 11.7784 28.541 11.8632 29.3783C12.0449 31.1704 13.5117 34.1937 17.1454 38.9536C26.4007 51.0776 32.3456 59.9512 35.6934 66.1719C37.3642 69.2765 38.4189 71.776 38.8994 73.7212C39.3588 75.5813 39.3847 77.2925 38.4239 78.4668C37.3602 79.7668 35.5995 79.8646 34.0283 79.58C32.4096 79.2868 30.4861 78.5178 28.3935 77.4416C24.182 75.2758 18.9057 71.6646 13.327 67.267C5.15889 60.8282 -3.7789 52.6064 -11.1352 44.5329C-13.9877 47.7054 -17.6635 50.5328 -22.2024 52.6655C-30.7835 56.6975 -42.3293 58.1908 -57.013 54.9895L-56.3641 52.5391C-42.2079 55.6254 -31.3651 54.1328 -23.4795 50.4276C-19.1034 48.3715 -15.601 45.6168 -12.9277 42.5327Z" fill="#F97410"/>
  <defs>
    <filter id="filter0_f_1269_1306" x="-59.2022" y="-7.73043" width="134.922" height="106.791" filterUnits="userSpaceOnUse" color-interpolation-filters="sRGB">
      <feFlood flood-opacity="0" result="BackgroundImageFix"/>
      <feBlend mode="normal" in="SourceGraphic" in2="BackgroundImageFix" result="shape"/>
      <feGaussianBlur stdDeviation="5.36595" result="effect1_foregroundBlur_1269_1306"/>
    </filter>
  </defs>
</svg>
